<?xml version="1.0" encoding="UTF-8" standalone="no"?>
<!-- Created with Inkscape (http://www.inkscape.org/) -->

<svg
   xmlns:dc="http://purl.org/dc/elements/1.1/"
   xmlns:cc="http://creativecommons.org/ns#"
   xmlns:rdf="http://www.w3.org/1999/02/22-rdf-syntax-ns#"
   xmlns:svg="http://www.w3.org/2000/svg"
   xmlns="http://www.w3.org/2000/svg"
   xmlns:sodipodi="http://sodipodi.sourceforge.net/DTD/sodipodi-0.dtd"
   xmlns:inkscape="http://www.inkscape.org/namespaces/inkscape"
   width="50mm"
   height="50mm"
   viewBox="0 0 50 50"
   version="1.1"
   id="svg8"
   inkscape:version="0.92.1 r15371"
   sodipodi:docname="logo.svg">
  <defs
     id="defs2" />
  <sodipodi:namedview
     id="base"
     pagecolor="#ffffff"
     bordercolor="#666666"
     borderopacity="1.0"
     inkscape:pageopacity="0.0"
     inkscape:pageshadow="2"
     inkscape:zoom="1.4"
     inkscape:cx="187.92426"
     inkscape:cy="-6.4778435"
     inkscape:document-units="mm"
     inkscape:current-layer="layer1"
     showgrid="false"
     inkscape:window-width="1362"
     inkscape:window-height="732"
     inkscape:window-x="0"
     inkscape:window-y="16"
     inkscape:window-maximized="0" />
  <metadata
     id="metadata5">
    <rdf:RDF>
      <cc:Work
         rdf:about="">
        <dc:format>image/svg+xml</dc:format>
        <dc:type
           rdf:resource="http://purl.org/dc/dcmitype/StillImage" />
        <dc:title></dc:title>
      </cc:Work>
    </rdf:RDF>
  </metadata>
  <g
     inkscape:label="Layer 1"
     inkscape:groupmode="layer"
     id="layer1"
     transform="translate(0,-247)">
    <ellipse
       style="opacity:1;fill:none;fill-opacity:1;stroke:#000000;stroke-width:0.33595631;stroke-opacity:1"
       id="path4596"
       cx="30.268274"
       cy="267.60037"
       rx="15.131859"
       ry="10.788729" />
    <ellipse
       style="opacity:1;fill:#0000ff;fill-opacity:1;stroke-width:0.26458332"
       id="path4571"
       cx="15.434811"
       cy="267.73404"
       rx="2.8731472"
       ry="2.9399648" />
    <ellipse
       style="opacity:1;fill:none;fill-opacity:1;stroke:#000000;stroke-width:0.336;stroke-miterlimit:4;stroke-dasharray:none;stroke-opacity:1"
       id="path4596-7"
       cx="26.192419"
       cy="267.73404"
       rx="22.400446"
       ry="16.052795" />
    <ellipse
       style="opacity:1;fill:#ff0000;fill-opacity:1;stroke-width:0.26458332"
       id="path4571-3"
       cx="4.1426773"
       cy="267.73401"
       rx="2.8731472"
       ry="2.9399648" />
    <ellipse
       style="opacity:1;fill:#ffff00;fill-opacity:1;stroke-width:0.26458332"
       id="path4571-6"
       cx="37.818634"
       cy="267.60037"
       rx="2.8731472"
       ry="2.9399648" />
    <g
       aria-label="SFL Kepler-Seminar"
       transform="scale(0.92861624,1.0768711)"
       style="font-style:normal;font-weight:normal;font-size:9.82785511px;line-height:6.14240932px;font-family:Sans;letter-spacing:0px;word-spacing:0px;fill:#000000;fill-opacity:1;stroke:none;stroke-width:0.24569637px;stroke-linecap:butt;stroke-linejoin:miter;stroke-opacity:1"
       id="text4615">
      <path
         d="m 7.824788,267.59666 v 0.44115 q -0.2575209,-0.12316 -0.4859307,-0.18362 -0.2284098,-0.0605 -0.4411445,-0.0605 -0.3694865,0 -0.5710246,0.14332 -0.1992987,0.14332 -0.1992987,0.40755 0,0.2217 0.1321194,0.3359 0.1343587,0.11197 0.5060845,0.18139 l 0.2731961,0.056 q 0.5060845,0.0963 0.7456909,0.34037 0.2418457,0.24185 0.2418457,0.6494 0,0.48593 -0.3269396,0.73674 -0.3247002,0.2508 -0.9539469,0.2508 -0.2373671,0 -0.5060845,-0.0537 -0.2664782,-0.0537 -0.5531101,-0.15899 v -0.46578 q 0.2754354,0.15451 0.5396742,0.23289 0.2642388,0.0784 0.5195204,0.0784 0.387401,0 0.5978963,-0.15227 0.2104953,-0.15227 0.2104953,-0.43443 0,-0.24632 -0.1522732,-0.38516 -0.1500339,-0.13884 -0.4948879,-0.20825 l -0.2754354,-0.0537 q -0.5060845,-0.10077 -0.7322551,-0.31574 -0.2261705,-0.21497 -0.2261705,-0.5979 0,-0.44338 0.3112644,-0.69866 0.3135037,-0.25528 0.8621351,-0.25528 0.2351278,0 0.4792128,0.0425 0.244085,0.0426 0.4993666,0.12764 z"
         style="font-style:normal;font-variant:normal;font-weight:normal;font-stretch:normal;font-size:4.58611107px;line-height:2.70266008px;font-family:'DejaVu Sans';-inkscape-font-specification:'DejaVu Sans';stroke-width:0.24569637px"
         id="path4716" />
      <path
         d="m 8.7317093,267.48694 h 1.9213297 v 0.38068 H 9.1840504 v 0.9853 h 1.3256726 v 0.38068 H 9.1840504 v 1.59663 H 8.7317093 Z"
         style="font-style:normal;font-variant:normal;font-weight:normal;font-stretch:normal;font-size:4.58611107px;line-height:2.70266008px;font-family:'DejaVu Sans';-inkscape-font-specification:'DejaVu Sans';stroke-width:0.24569637px"
         id="path4718" />
      <path
         d="m 11.374097,267.48694 h 0.452341 v 2.96261 h 1.62798 v 0.38068 h -2.080321 z"
         style="font-style:normal;font-variant:normal;font-weight:normal;font-stretch:normal;font-size:4.58611107px;line-height:2.70266008px;font-family:'DejaVu Sans';-inkscape-font-specification:'DejaVu Sans';stroke-width:0.24569637px"
         id="path4720" />
      <path
         d="m 15.386945,267.48694 h 0.452341 v 1.413 l 1.500339,-1.413 h 0.582221 l -1.65933,1.55856 1.778014,1.78473 h -0.595657 l -1.605587,-1.61006 v 1.61006 h -0.452341 z"
         style="font-style:normal;font-variant:normal;font-weight:normal;font-stretch:normal;font-size:4.58611107px;line-height:2.70266008px;font-family:'DejaVu Sans';-inkscape-font-specification:'DejaVu Sans';stroke-width:0.24569637px"
         id="path4722" />
      <path
         d="m 20.299995,269.47321 v 0.20154 h -1.894458 q 0.02687,0.42546 0.255282,0.6494 0.230649,0.22169 0.640443,0.22169 0.237367,0 0.459059,-0.0582 0.223931,-0.0582 0.443384,-0.17467 v 0.38964 q -0.221692,0.0941 -0.454581,0.14332 -0.232888,0.0493 -0.472494,0.0493 -0.600136,0 -0.951708,-0.34933 -0.349333,-0.34933 -0.349333,-0.94499 0,-0.61581 0.331418,-0.97634 0.333658,-0.36277 0.897965,-0.36277 0.506084,0 0.799434,0.32694 0.295589,0.3247 0.295589,0.88453 z m -0.412033,-0.12093 q -0.0045,-0.33813 -0.190342,-0.53967 -0.183623,-0.20154 -0.48817,-0.20154 -0.344854,0 -0.55311,0.19482 -0.206017,0.19482 -0.237367,0.54863 z"
         style="font-style:normal;font-variant:normal;font-weight:normal;font-stretch:normal;font-size:4.58611107px;line-height:2.70266008px;font-family:'DejaVu Sans';-inkscape-font-specification:'DejaVu Sans';stroke-width:0.24569637px"
         id="path4724" />
      <path
         d="m 21.374865,270.45403 v 1.33015 h -0.414273 v -3.46198 h 0.414273 v 0.38068 q 0.12988,-0.22393 0.32694,-0.33141 0.199298,-0.10973 0.474734,-0.10973 0.456819,0 0.741212,0.36277 0.286632,0.36277 0.286632,0.95395 0,0.59117 -0.286632,0.95394 -0.284393,0.36277 -0.741212,0.36277 -0.275436,0 -0.474734,-0.10749 -0.19706,-0.10972 -0.32694,-0.33365 z m 1.401809,-0.87557 q 0,-0.45459 -0.188102,-0.71211 -0.185863,-0.25976 -0.512802,-0.25976 -0.32694,0 -0.515042,0.25976 -0.185863,0.25752 -0.185863,0.71211 0,0.45458 0.185863,0.71434 0.188102,0.25752 0.515042,0.25752 0.326939,0 0.512802,-0.25752 0.188102,-0.25976 0.188102,-0.71434 z"
         style="font-style:normal;font-variant:normal;font-weight:normal;font-stretch:normal;font-size:4.58611107px;line-height:2.70266008px;font-family:'DejaVu Sans';-inkscape-font-specification:'DejaVu Sans';stroke-width:0.24569637px"
         id="path4726" />
      <path
         d="m 23.887374,267.34586 h 0.412033 v 3.48437 h -0.412033 z"
         style="font-style:normal;font-variant:normal;font-weight:normal;font-stretch:normal;font-size:4.58611107px;line-height:2.70266008px;font-family:'DejaVu Sans';-inkscape-font-specification:'DejaVu Sans';stroke-width:0.24569637px"
         id="path4728" />
      <path
         d="m 27.304563,269.47321 v 0.20154 h -1.894458 q 0.02687,0.42546 0.255282,0.6494 0.230649,0.22169 0.640443,0.22169 0.237367,0 0.459059,-0.0582 0.223931,-0.0582 0.443384,-0.17467 v 0.38964 q -0.221692,0.0941 -0.45458,0.14332 -0.232889,0.0493 -0.472495,0.0493 -0.600136,0 -0.951708,-0.34933 -0.349333,-0.34933 -0.349333,-0.94499 0,-0.61581 0.331419,-0.97634 0.333657,-0.36277 0.897964,-0.36277 0.506084,0 0.799434,0.32694 0.295589,0.3247 0.295589,0.88453 z m -0.412033,-0.12093 q -0.0045,-0.33813 -0.190342,-0.53967 -0.183623,-0.20154 -0.48817,-0.20154 -0.344854,0 -0.55311,0.19482 -0.206016,0.19482 -0.237367,0.54863 z"
         style="font-style:normal;font-variant:normal;font-weight:normal;font-stretch:normal;font-size:4.58611107px;line-height:2.70266008px;font-family:'DejaVu Sans';-inkscape-font-specification:'DejaVu Sans';stroke-width:0.24569637px"
         id="path4730" />
      <path
         d="m 29.434149,268.70736 q -0.06942,-0.0403 -0.152273,-0.0582 -0.08062,-0.0202 -0.179145,-0.0202 -0.349333,0 -0.537435,0.22841 -0.185863,0.22617 -0.185863,0.65164 v 1.32119 H 27.96516 v -2.50803 h 0.414273 v 0.38964 q 0.12988,-0.22841 0.338136,-0.33813 0.208256,-0.11197 0.506085,-0.11197 0.04255,0 0.09405,0.007 0.0515,0.004 0.114205,0.0157 z"
         style="font-style:normal;font-variant:normal;font-weight:normal;font-stretch:normal;font-size:4.58611107px;line-height:2.70266008px;font-family:'DejaVu Sans';-inkscape-font-specification:'DejaVu Sans';stroke-width:0.24569637px"
         id="path4732" />
      <path
         d="m 29.36697,269.39035 h 1.20699 v 0.36725 h -1.20699 z"
         style="font-style:normal;font-variant:normal;font-weight:normal;font-stretch:normal;font-size:4.58611107px;line-height:2.70266008px;font-family:'DejaVu Sans';-inkscape-font-specification:'DejaVu Sans';stroke-width:0.24569637px"
         id="path4734" />
      <path
         d="m 33.254414,267.59666 v 0.44115 q -0.25752,-0.12316 -0.48593,-0.18362 -0.22841,-0.0605 -0.441145,-0.0605 -0.369486,0 -0.571024,0.14332 -0.199299,0.14332 -0.199299,0.40755 0,0.2217 0.132119,0.3359 0.134359,0.11197 0.506085,0.18139 l 0.273196,0.056 q 0.506084,0.0963 0.745691,0.34037 0.241846,0.24185 0.241846,0.6494 0,0.48593 -0.32694,0.73674 -0.3247,0.2508 -0.953947,0.2508 -0.237367,0 -0.506084,-0.0537 -0.266479,-0.0537 -0.553111,-0.15899 v -0.46578 q 0.275436,0.15451 0.539675,0.23289 0.264238,0.0784 0.51952,0.0784 0.387401,0 0.597896,-0.15227 0.210496,-0.15227 0.210496,-0.43443 0,-0.24632 -0.152274,-0.38516 -0.150033,-0.13884 -0.494887,-0.20825 l -0.275436,-0.0537 q -0.506084,-0.10077 -0.732255,-0.31574 -0.22617,-0.21497 -0.22617,-0.5979 0,-0.44338 0.311264,-0.69866 0.313504,-0.25528 0.862135,-0.25528 0.235128,0 0.479213,0.0425 0.244085,0.0426 0.499366,0.12764 z"
         style="font-style:normal;font-variant:normal;font-weight:normal;font-stretch:normal;font-size:4.58611107px;line-height:2.70266008px;font-family:'DejaVu Sans';-inkscape-font-specification:'DejaVu Sans';stroke-width:0.24569637px"
         id="path4736" />
      <path
         d="m 36.288683,269.47321 v 0.20154 h -1.894458 q 0.02687,0.42546 0.255281,0.6494 0.230649,0.22169 0.640444,0.22169 0.237367,0 0.459059,-0.0582 0.223931,-0.0582 0.443383,-0.17467 v 0.38964 q -0.221692,0.0941 -0.45458,0.14332 -0.232888,0.0493 -0.472495,0.0493 -0.600135,0 -0.951707,-0.34933 -0.349333,-0.34933 -0.349333,-0.94499 0,-0.61581 0.331418,-0.97634 0.333658,-0.36277 0.897964,-0.36277 0.506085,0 0.799435,0.32694 0.295589,0.3247 0.295589,0.88453 z m -0.412034,-0.12093 q -0.0045,-0.33813 -0.190341,-0.53967 -0.183624,-0.20154 -0.48817,-0.20154 -0.344854,0 -0.55311,0.19482 -0.206017,0.19482 -0.237367,0.54863 z"
         style="font-style:normal;font-variant:normal;font-weight:normal;font-stretch:normal;font-size:4.58611107px;line-height:2.70266008px;font-family:'DejaVu Sans';-inkscape-font-specification:'DejaVu Sans';stroke-width:0.24569637px"
         id="path4738" />
      <path
         d="m 38.917635,268.80365 q 0.154513,-0.27767 0.369487,-0.40979 0.214974,-0.13212 0.506084,-0.13212 0.39188,0 0.604614,0.27544 0.212735,0.27319 0.212735,0.77928 v 1.51377 h -0.414273 v -1.50034 q 0,-0.36053 -0.127641,-0.53519 -0.12764,-0.17467 -0.38964,-0.17467 -0.320221,0 -0.506084,0.21273 -0.185863,0.21274 -0.185863,0.57999 v 1.41748 h -0.414273 v -1.50034 q 0,-0.36277 -0.127641,-0.53519 -0.127641,-0.17467 -0.394119,-0.17467 -0.315743,0 -0.501606,0.21497 -0.185862,0.21274 -0.185862,0.57775 v 1.41748 H 36.94928 v -2.50803 h 0.414273 v 0.38964 q 0.141076,-0.23065 0.338136,-0.34037 0.197059,-0.10973 0.468016,-0.10973 0.273196,0 0.463537,0.13884 0.192581,0.13883 0.284393,0.40307 z"
         style="font-style:normal;font-variant:normal;font-weight:normal;font-stretch:normal;font-size:4.58611107px;line-height:2.70266008px;font-family:'DejaVu Sans';-inkscape-font-specification:'DejaVu Sans';stroke-width:0.24569637px"
         id="path4740" />
      <path
         d="m 41.434624,268.3222 h 0.412034 v 2.50803 h -0.412034 z m 0,-0.97634 h 0.412034 v 0.52176 h -0.412034 z"
         style="font-style:normal;font-variant:normal;font-weight:normal;font-stretch:normal;font-size:4.58611107px;line-height:2.70266008px;font-family:'DejaVu Sans';-inkscape-font-specification:'DejaVu Sans';stroke-width:0.24569637px"
         id="path4742" />
      <path
         d="m 44.791351,269.31646 v 1.51377 h -0.412034 v -1.50034 q 0,-0.35605 -0.138837,-0.53295 -0.138837,-0.17691 -0.416512,-0.17691 -0.333658,0 -0.526238,0.21273 -0.192581,0.21274 -0.192581,0.57999 v 1.41748 h -0.414273 v -2.50803 h 0.414273 v 0.38964 q 0.147794,-0.22617 0.347093,-0.33813 0.201538,-0.11197 0.463538,-0.11197 0.432187,0 0.653879,0.26872 0.221692,0.26648 0.221692,0.786 z"
         style="font-style:normal;font-variant:normal;font-weight:normal;font-stretch:normal;font-size:4.58611107px;line-height:2.70266008px;font-family:'DejaVu Sans';-inkscape-font-specification:'DejaVu Sans';stroke-width:0.24569637px"
         id="path4744" />
      <path
         d="m 46.757467,269.5695 q -0.499366,0 -0.691947,0.1142 -0.192581,0.11421 -0.192581,0.38964 0,0.21946 0.143316,0.34934 0.145555,0.12764 0.394119,0.12764 0.342615,0 0.548631,-0.24185 0.208256,-0.24408 0.208256,-0.64716 v -0.0918 z m 0.821828,-0.17019 v 1.43092 h -0.412034 v -0.38068 q -0.141076,0.22841 -0.351572,0.33813 -0.210495,0.10749 -0.515041,0.10749 -0.385162,0 -0.613572,-0.21497 -0.226171,-0.21722 -0.226171,-0.57999 0,-0.42322 0.282154,-0.6382 0.284392,-0.21497 0.84646,-0.21497 h 0.577742 v -0.0403 q 0,-0.28439 -0.188102,-0.43891 -0.185863,-0.15675 -0.523999,-0.15675 -0.214974,0 -0.418751,0.0515 -0.203778,0.0515 -0.39188,0.15451 v -0.38068 q 0.226171,-0.0873 0.438905,-0.12988 0.212735,-0.0448 0.414273,-0.0448 0.544153,0 0.81287,0.28215 0.268718,0.28216 0.268718,0.85542 z"
         style="font-style:normal;font-variant:normal;font-weight:normal;font-stretch:normal;font-size:4.58611107px;line-height:2.70266008px;font-family:'DejaVu Sans';-inkscape-font-specification:'DejaVu Sans';stroke-width:0.24569637px"
         id="path4746" />
      <path
         d="m 49.883547,268.70736 q -0.06942,-0.0403 -0.152273,-0.0582 -0.08062,-0.0202 -0.179145,-0.0202 -0.349333,0 -0.537435,0.22841 -0.185863,0.22617 -0.185863,0.65164 v 1.32119 h -0.414273 v -2.50803 h 0.414273 v 0.38964 q 0.12988,-0.22841 0.338136,-0.33813 0.208256,-0.11197 0.506085,-0.11197 0.04255,0 0.09405,0.007 0.0515,0.004 0.114205,0.0157 z"
         style="font-style:normal;font-variant:normal;font-weight:normal;font-stretch:normal;font-size:4.58611107px;line-height:2.70266008px;font-family:'DejaVu Sans';-inkscape-font-specification:'DejaVu Sans';stroke-width:0.24569637px"
         id="path4748" />
    </g>
  </g>
</svg>
